<svg version="1.1" viewBox="0.0 0.0 217.0551181102362 419.5249343832021" fill="none" stroke="none" stroke-linecap="square" stroke-miterlimit="10" xmlns:xlink="http://www.w3.org/1999/xlink" xmlns="http://www.w3.org/2000/svg"><clipPath id="p.0"><path d="m0 0l217.05511 0l0 419.52493l-217.05511 0l0 -419.52493z" clip-rule="nonzero"/></clipPath><g clip-path="url(#p.0)"><path fill="#000000" fill-opacity="0.0" d="m0 0l217.05511 0l0 419.52493l-217.05511 0z" fill-rule="evenodd"/><path fill="#595959" d="m0 35.969223l0 0c0 -19.865253 16.10397 -35.969223 35.969223 -35.969223l143.87257 0l0 0c9.539627 0 18.688553 3.7896037 25.434082 10.535142c6.7455444 6.7455378 10.535141 15.89445 10.535141 25.434082l0 345.8883c0 19.865265 -16.103973 35.96924 -35.969223 35.96924l-143.87257 0c-19.865253 0 -35.969223 -16.103973 -35.969223 -35.96924z" fill-rule="evenodd"/><path stroke="#595959" stroke-width="1.0" stroke-linejoin="round" stroke-linecap="butt" d="m0 35.969223l0 0c0 -19.865253 16.10397 -35.969223 35.969223 -35.969223l143.87257 0l0 0c9.539627 0 18.688553 3.7896037 25.434082 10.535142c6.7455444 6.7455378 10.535141 15.89445 10.535141 25.434082l0 345.8883c0 19.865265 -16.103973 35.96924 -35.969223 35.96924l-143.87257 0c-19.865253 0 -35.969223 -16.103973 -35.969223 -35.96924z" fill-rule="evenodd"/><path fill="#ffffff" d="m9.097281 32.736557l197.6378 0l0 341.92126l-197.6378 0z" fill-rule="evenodd"/><path stroke="#595959" stroke-width="1.0" stroke-linejoin="round" stroke-linecap="butt" d="m9.097281 32.736557l197.6378 0l0 341.92126l-197.6378 0z" fill-rule="evenodd"/><path fill="#999999" d="m79.11386 11.81952l0 0c0 -0.5015602 0.40659332 -0.9081545 0.90815735 -0.9081545l55.789993 0c0.24084473 0 0.47184753 0.09568024 0.6421509 0.26599216c0.1703186 0.17031193 0.2659912 0.4013052 0.2659912 0.6421623l0 3.6325092c0 0.5015602 -0.4065857 0.9081545 -0.9081421 0.9081545l-55.789993 0l0 0c-0.501564 0 -0.90815735 -0.40659428 -0.90815735 -0.9081545z" fill-rule="evenodd"/><path stroke="#595959" stroke-width="1.0" stroke-linejoin="round" stroke-linecap="butt" d="m79.11386 11.81952l0 0c0 -0.5015602 0.40659332 -0.9081545 0.90815735 -0.9081545l55.789993 0c0.24084473 0 0.47184753 0.09568024 0.6421509 0.26599216c0.1703186 0.17031193 0.2659912 0.4013052 0.2659912 0.6421623l0 3.6325092c0 0.5015602 -0.4065857 0.9081545 -0.9081421 0.9081545l-55.789993 0l0 0c-0.501564 0 -0.90815735 -0.40659428 -0.90815735 -0.9081545z" fill-rule="evenodd"/><path fill="#999999" d="m79.11386 390.7045l0 0c0 -1.2437439 1.0082626 -2.2520142 2.2520142 -2.2520142l53.102264 0c0.5972748 0 1.1700897 0.23727417 1.5924225 0.65960693c0.42233276 0.42233276 0.6595917 0.9951172 0.6595917 1.5924072l0 9.007782c0 1.2437439 -1.008255 2.2520142 -2.2520142 2.2520142l-53.102264 0l0 0c-1.2437515 0 -2.2520142 -1.0082703 -2.2520142 -2.2520142z" fill-rule="evenodd"/><path stroke="#595959" stroke-width="1.0" stroke-linejoin="round" stroke-linecap="butt" d="m79.11386 390.7045l0 0c0 -1.2437439 1.0082626 -2.2520142 2.2520142 -2.2520142l53.102264 0c0.5972748 0 1.1700897 0.23727417 1.5924225 0.65960693c0.42233276 0.42233276 0.6595917 0.9951172 0.6595917 1.5924072l0 9.007782c0 1.2437439 -1.008255 2.2520142 -2.2520142 2.2520142l-53.102264 0l0 0c-1.2437515 0 -2.2520142 -1.0082703 -2.2520142 -2.2520142z" fill-rule="evenodd"/></g></svg>